<svg width="82" height="96" viewBox="0 0 82 96" fill="none" xmlns="http://www.w3.org/2000/svg">
<g id="GraphicDesignAnimation">
<path id="logoBottom" d="M78.7735 51.5514C80.8843 55.605 81.0131 60.6968 78.4476 65.1404C73.1819 74.2609 74.9364 71.222 67.4578 84.1753C64.2458 89.7388 56.9488 93.9987 49.7721 94.4159C42 94.8677 33.5198 90.8784 29.4484 83.8264L29.4484 83.8264C20.8374 68.9117 17.6499 63.4082 14.1315 57.3141C10.613 51.2199 14.8242 44.1559 21.7152 44.1559C28.6062 44.1559 55.0747 44.1683 66.3516 44.1683C72.1343 44.1683 76.5518 47.2848 78.7735 51.5514Z" stroke="black" stroke-width="1.5"/>
<path id="logoTop" d="M78.7071 51.2725C77.1497 53.386 74.6002 54.8041 71.5127 54.8041C64.6217 54.8041 38.1532 54.7917 26.8763 54.7917C15.5994 54.7917 9.5145 42.9402 14.7802 33.8196C20.046 24.6991 18.2915 27.7379 25.7701 14.7847C28.9821 9.22122 36.2791 4.96126 43.4558 4.54411C51.2279 4.09233 59.708 8.08158 63.7795 15.1336L63.7795 15.1336C72.3905 30.0483 75.578 35.5518 79.0964 41.6459C81.0385 45.0096 80.6256 48.6688 78.7071 51.2725Z" stroke="black" stroke-width="1.5"/>
<g id="pencil">
<path id="body" d="M32.7135 5.12507L25.3252 5.42188L12.8252 27.0725L12.8253 52.0723L34.4759 39.5725L34.4769 39.5708L46.9759 17.9218L43.5388 11.375L32.7135 5.12507Z" fill="white" stroke="black" stroke-width="1.5" stroke-linecap="round" stroke-linejoin="round"/>
<path id="cover" d="M25.3252 5.42188L12.8252 27.0725C15.2135 22.9359 18.639 29.5028 16.2632 33.6177C18.5793 29.6061 29.4606 35.7591 27.0886 39.8676C29.4643 35.7527 36.8651 35.4341 34.4768 39.5708L46.9758 17.9219L39.5886 18.217L28.7633 11.967L25.3252 5.42188Z" fill="white" stroke="black" stroke-width="1.5" stroke-linejoin="round"/>
<path id="triangle" d="M16.8446 45.1124C15.6217 44.4105 14.2356 44.0427 12.8256 44.046L12.826 52.0727L19.7785 48.0579C19.0758 46.8357 18.064 45.8199 16.8446 45.1124Z" fill="black"/>
<path id="circle" d="M35.4743 12.8447C37.4169 13.9663 39.2948 14.3506 39.6687 13.703C40.0425 13.0555 38.7708 11.6213 36.8282 10.4997C34.8855 9.37811 33.0076 8.99384 32.6337 9.64139C32.2599 10.2889 33.5316 11.7231 35.4743 12.8447Z" fill="black"/>
<path id="line2" d="M28.7632 11.967L16.2632 33.6177" stroke="black" stroke-width="1.5" stroke-linecap="round"/>
<path id="line1" d="M39.5886 18.217L27.0886 39.8677" stroke="black" stroke-width="1.5" stroke-linecap="round"/>
</g>
</g>
</svg>
