<svg width="15" height="29" viewBox="0 0 15 29" fill="none" xmlns="http://www.w3.org/2000/svg">
<g id="TreeGrowing">
<path id="Tree" d="M6.21566 28.4388C7.13624 28.4388 8.05681 28.4388 8.97735 28.4388C8.79971 23.3125 8.62208 18.1862 8.44418 13.0599C8.41773 12.2794 8.37879 12.4753 8.67472 12.9564C9.07395 13.605 10.0819 14.7728 12.5439 14.7728C14.6982 14.7728 14.9725 13.3466 14.999 12.4154C15.0368 11.1173 14.0149 10.0619 12.2177 10.0619C10.4166 10.0619 9.61662 9.67421 9.04584 9.06185C8.68905 8.67898 8.81831 8.61773 9.36597 8.93293C9.97107 9.28061 10.4775 9.42121 11.7039 9.42121C13.2003 9.42121 13.82 8.41351 13.7898 7.59895C13.752 6.66801 12.8681 5.9134 11.573 5.9134C9.58684 5.9134 8.93114 5.50084 8.78982 5.12629C8.7456 5.01139 8.80493 5.06941 9.2234 5.13233C10.6565 5.34637 11.3464 5.17958 11.3464 4.03273C11.3464 2.87491 10.2678 2.86997 9.47732 2.79249C8.49222 2.69604 8.3907 2.01408 7.97729 1.05226C7.70592 0.420877 7.33885 0.722494 7.21556 1.05226C6.84894 2.03288 6.70067 2.69604 5.71558 2.79249C4.92509 2.8699 3.84642 2.87504 3.84642 4.03273C3.84642 5.1796 4.53637 5.34637 5.96949 5.13233C6.38698 5.06971 6.4473 5.00969 6.40307 5.12629C6.26172 5.50084 5.60601 5.9134 3.61987 5.9134C2.32478 5.9134 1.44087 6.66801 1.40307 7.59895C1.37283 8.41349 1.9926 9.42121 3.48903 9.42121C4.71541 9.42121 5.22178 9.28076 5.82688 8.93293C6.37492 8.61791 6.50399 8.67913 6.14702 9.06185C5.57623 9.67418 4.77634 10.0619 2.97517 10.0619C1.178 10.0619 0.156124 11.1173 0.193882 12.4154C0.220338 13.3467 0.494739 14.7728 2.64899 14.7728C5.11098 14.7728 6.11893 13.605 6.51813 12.9564C6.81407 12.4753 6.77514 12.2795 6.74868 13.0599C6.57104 18.1862 6.39303 23.3125 6.21547 28.4388" fill="#32362D"/>
<path id="Sprout" d="M6.99787 28.4388H8.19515C8.13544 28.0207 8.11654 27.4819 8.09765 26.9408C8.09685 26.903 8.09474 26.8653 8.09387 26.8275C8.09009 26.7646 8.09009 26.7006 8.08631 26.638C8.08253 26.5561 8.07875 26.4765 8.07497 26.3958C8.07119 26.3254 8.06741 26.2557 8.06364 26.1869C8.06364 26.1306 8.05985 26.0738 8.05607 26.0189C8.05229 25.9629 8.04851 25.9071 8.04473 25.8529C8.04095 25.8085 8.03718 25.765 8.0334 25.722C8.02962 25.6679 8.02584 25.6154 8.01828 25.5638C8.0145 25.5077 8.00693 25.4524 7.99938 25.3997C7.99182 25.3466 7.98426 25.2965 7.9767 25.2474C7.96158 25.1653 7.94647 25.088 7.92795 25.0189C7.92039 24.978 7.90526 24.9415 7.89392 24.9056C7.88259 24.8689 7.86747 24.8347 7.85311 24.8041C7.82287 24.7423 7.7798 24.7006 7.74956 24.6576C7.6872 24.568 7.50578 24.5958 7.44681 24.6576C7.40411 24.7025 7.40259 24.7198 7.34211 24.8041C7.327 24.8347 7.31188 24.869 7.29903 24.9056C7.28769 24.9415 7.27258 24.978 7.26502 25.0189C7.24612 25.088 7.231 25.1653 7.21437 25.2474C7.20681 25.2965 7.19925 25.3466 7.19169 25.3997C7.18413 25.4524 7.17657 25.5077 7.17279 25.5638C7.16523 25.6154 7.16146 25.6679 7.15768 25.722C7.1539 25.765 7.15011 25.8085 7.14633 25.8529C7.14255 25.9071 7.13878 25.9628 7.135 26.0189C7.13198 26.0738 7.12745 26.1306 7.12745 26.1869C7.12367 26.2557 7.11988 26.3254 7.1161 26.3958C7.11311 26.4765 7.10855 26.5561 7.10477 26.638C7.10276 26.7006 7.10098 26.7646 7.0972 26.8275C7.09622 26.8653 7.0941 26.9031 7.09342 26.9408C7.07452 27.4819 7.05563 28.0207 6.9978 28.4388" fill="#32362D"/>
</g>
</svg>
