<?xml version="1.0" encoding="UTF-8" standalone="no"?>
<svg
   xmlns:dc="http://purl.org/dc/elements/1.1/"
   xmlns:cc="http://creativecommons.org/ns#"
   xmlns:rdf="http://www.w3.org/1999/02/22-rdf-syntax-ns#"
   xmlns:svg="http://www.w3.org/2000/svg"
   xmlns="http://www.w3.org/2000/svg"
   id="svg5154"
   version="1.1"
   viewBox="0 0 210 297"
   height="297mm"
   width="210mm">
  <defs
     id="defs5148" />
  <metadata
     id="metadata5151">
    <rdf:RDF>
      <cc:Work
         rdf:about="">
        <dc:format>image/svg+xml</dc:format>
        <dc:type
           rdf:resource="http://purl.org/dc/dcmitype/StillImage" />
        <dc:title></dc:title>
      </cc:Work>
    </rdf:RDF>
  </metadata>
  <g
     id="layer1">
    <g
       transform="matrix(0.98479584,0,0,0.98479584,-64.819831,-45.001478)"
       id="g5112"
       style="filter:url(#filter4973)">
      <g
         id="g5085">
        <rect
           y="160.03871"
           x="141.25194"
           height="19.84375"
           width="26.458334"
           id="rect5002"
           style="opacity:1;vector-effect:none;fill:#36343c;fill-opacity:1;stroke:#36343c;stroke-width:0.40851668;stroke-linecap:round;stroke-linejoin:miter;stroke-miterlimit:4;stroke-dasharray:none;stroke-dashoffset:0;stroke-opacity:1;paint-order:markers fill stroke" />
        <rect
           style="opacity:1;vector-effect:none;fill:#c3e06d;fill-opacity:1;stroke:none;stroke-width:0.0298299;stroke-linecap:round;stroke-linejoin:bevel;stroke-miterlimit:4;stroke-dasharray:none;stroke-dashoffset:0;stroke-opacity:1;paint-order:markers fill stroke"
           id="rect5004"
           width="5.2916665"
           height="0.52916664"
           x="143.89777"
           y="162.48599" />
        <rect
           y="163.54433"
           x="143.89777"
           height="0.52916664"
           width="15.875"
           id="rect5006"
           style="opacity:1;vector-effect:none;fill:#c3e06d;fill-opacity:1;stroke:none;stroke-width:0.05166691;stroke-linecap:round;stroke-linejoin:bevel;stroke-miterlimit:4;stroke-dasharray:none;stroke-dashoffset:0;stroke-opacity:1;paint-order:markers fill stroke" />
        <rect
           style="opacity:1;vector-effect:none;fill:#c3e06d;fill-opacity:1;stroke:none;stroke-width:0.04716523;stroke-linecap:round;stroke-linejoin:bevel;stroke-miterlimit:4;stroke-dasharray:none;stroke-dashoffset:0;stroke-opacity:1;paint-order:markers fill stroke"
           id="rect5008"
           width="13.229167"
           height="0.52916664"
           x="143.89777"
           y="164.60266" />
        <rect
           y="165.661"
           x="143.89777"
           height="0.52916664"
           width="5.2916665"
           id="rect5010"
           style="opacity:1;vector-effect:none;fill:#c3e06d;fill-opacity:1;stroke:none;stroke-width:0.0298299;stroke-linecap:round;stroke-linejoin:bevel;stroke-miterlimit:4;stroke-dasharray:none;stroke-dashoffset:0;stroke-opacity:1;paint-order:markers fill stroke" />
        <rect
           style="opacity:1;vector-effect:none;fill:#c3e06d;fill-opacity:1;stroke:none;stroke-width:0.05965981;stroke-linecap:round;stroke-linejoin:bevel;stroke-miterlimit:4;stroke-dasharray:none;stroke-dashoffset:0;stroke-opacity:1;paint-order:markers fill stroke"
           id="rect5012"
           width="21.166666"
           height="0.52916664"
           x="143.89777"
           y="166.71933" />
        <rect
           y="167.77766"
           x="143.89777"
           height="0.52916664"
           width="7.9375"
           id="rect5014"
           style="opacity:1;vector-effect:none;fill:#c3e06d;fill-opacity:1;stroke:none;stroke-width:0.03653402;stroke-linecap:round;stroke-linejoin:bevel;stroke-miterlimit:4;stroke-dasharray:none;stroke-dashoffset:0;stroke-opacity:1;paint-order:markers fill stroke" />
        <rect
           style="opacity:1;vector-effect:none;fill:#c3e06d;fill-opacity:1;stroke:none;stroke-width:0.04218586;stroke-linecap:round;stroke-linejoin:bevel;stroke-miterlimit:4;stroke-dasharray:none;stroke-dashoffset:0;stroke-opacity:1;paint-order:markers fill stroke"
           id="rect5016"
           width="10.583333"
           height="0.52916664"
           x="143.89777"
           y="168.836" />
        <rect
           y="169.89433"
           x="143.89777"
           height="0.52916664"
           width="18.520834"
           id="rect5018"
           style="opacity:1;vector-effect:none;fill:#c3e06d;fill-opacity:1;stroke:none;stroke-width:0.05580664;stroke-linecap:round;stroke-linejoin:bevel;stroke-miterlimit:4;stroke-dasharray:none;stroke-dashoffset:0;stroke-opacity:1;paint-order:markers fill stroke" />
        <rect
           style="opacity:1;vector-effect:none;fill:#c3e06d;fill-opacity:1;stroke:none;stroke-width:0.0298299;stroke-linecap:round;stroke-linejoin:bevel;stroke-miterlimit:4;stroke-dasharray:none;stroke-dashoffset:0;stroke-opacity:1;paint-order:markers fill stroke"
           id="rect5020"
           width="5.2916665"
           height="0.52916664"
           x="143.89777"
           y="170.95267" />
        <rect
           y="172.011"
           x="143.89777"
           height="0.52916664"
           width="5.2916665"
           id="rect5022"
           style="opacity:1;vector-effect:none;fill:#c3e06d;fill-opacity:1;stroke:none;stroke-width:0.0298299;stroke-linecap:round;stroke-linejoin:bevel;stroke-miterlimit:4;stroke-dasharray:none;stroke-dashoffset:0;stroke-opacity:1;paint-order:markers fill stroke" />
        <rect
           style="opacity:1;vector-effect:none;fill:#c3e06d;fill-opacity:1;stroke:none;stroke-width:0.04218586;stroke-linecap:round;stroke-linejoin:bevel;stroke-miterlimit:4;stroke-dasharray:none;stroke-dashoffset:0;stroke-opacity:1;paint-order:markers fill stroke"
           id="rect5024"
           width="10.583333"
           height="0.52916664"
           x="143.89777"
           y="173.06934" />
        <rect
           y="174.12767"
           x="143.89777"
           height="0.52916664"
           width="7.9375"
           id="rect5026"
           style="opacity:1;vector-effect:none;fill:#c3e06d;fill-opacity:1;stroke:none;stroke-width:0.03653402;stroke-linecap:round;stroke-linejoin:bevel;stroke-miterlimit:4;stroke-dasharray:none;stroke-dashoffset:0;stroke-opacity:1;paint-order:markers fill stroke" />
        <rect
           style="opacity:1;vector-effect:none;fill:#c3e06d;fill-opacity:1;stroke:none;stroke-width:0.02109293;stroke-linecap:round;stroke-linejoin:bevel;stroke-miterlimit:4;stroke-dasharray:none;stroke-dashoffset:0;stroke-opacity:1;paint-order:markers fill stroke"
           id="rect5028"
           width="2.6458333"
           height="0.52916664"
           x="143.89777"
           y="175.186" />
      </g>
      <g
         id="g5069">
        <rect
           style="opacity:1;vector-effect:none;fill:#c3e06d;fill-opacity:1;stroke:#36343c;stroke-width:0.40851668;stroke-linecap:round;stroke-linejoin:miter;stroke-miterlimit:4;stroke-dasharray:none;stroke-dashoffset:0;stroke-opacity:1;paint-order:markers fill stroke"
           id="rect5034"
           width="26.458334"
           height="19.84375"
           x="168.11873"
           y="160.03871" />
        <path
           id="path5036"
           d="m 180.78151,162.83607 c -0.90177,1.56189 -1.80357,3.12379 -2.70534,4.68569 -0.2001,0.0657 -0.3927,0.20138 -0.51341,0.37291 -0.0364,0.0516 -0.0628,0.0965 -0.0915,0.15355 -0.0973,0.19365 -0.12534,0.42235 -0.0755,0.65196 0.11027,-0.19088 0.22045,-0.38175 0.33067,-0.57263 0.17084,0.2081 0.38309,0.37306 0.62632,0.47857 -0.17856,0.30932 -0.35712,0.61864 -0.53569,0.92796 0.0351,0.0605 0.114,0.19744 0.15045,0.26044 0.21263,-0.36829 0.42527,-0.73659 0.6379,-1.10488 0.19925,0.0497 0.36986,0.0491 0.57347,0.0491 6.6e-4,-0.001 0.001,-0.003 0.001,-0.003 1e-5,0 4e-5,0 7e-5,0 -0.30411,0.52673 -0.60822,1.05347 -0.91234,1.5802 0.0416,0.0719 0.1052,0.18206 0.15045,0.26044 0.35358,-0.61241 0.70714,-1.22484 1.06071,-1.83726 2e-5,0 4e-5,0 7e-5,0 0.20587,0 0.41552,2.7e-4 0.60164,2.7e-4 -0.45381,0.78602 -0.90763,1.57205 -1.36146,2.35808 0.0552,0.0955 0.0893,0.15436 0.15059,0.26036 0.5039,-0.87282 1.00781,-1.74562 1.5117,-2.61844 0.21188,0 0.41772,2.7e-4 0.60172,2.7e-4 -0.60415,1.04643 -1.20831,2.09287 -1.81246,3.13932 0.12027,0.19323 0.15202,0.29231 0.3113,0.50309 0.70093,-1.21411 1.40187,-2.42823 2.10281,-3.64235 0.10026,0 0.20056,0 0.30082,0 6.7e-4,-0.001 0.001,-0.003 0.001,-0.003 4e-5,0 9e-5,0 1.3e-4,0 -0.74192,1.28508 -1.48383,2.57015 -2.22576,3.85524 0.12507,0.12907 0.26249,0.24274 0.40558,0.33983 0.80663,-1.39717 1.61327,-2.79432 2.4199,-4.19149 0.10027,0 0.20055,0 0.30083,0 -0.83264,1.44222 -1.66527,2.88443 -2.49792,4.32664 0.15898,0.0856 0.32322,0.15452 0.48305,0.20565 0.87219,-1.5107 1.74439,-3.02139 2.61658,-4.53207 0.0845,1e-5 0.22766,0 0.30083,0 -0.8855,1.53372 -1.771,3.06746 -2.65649,4.60119 0.29852,0.0621 0.59159,0.0748 0.88248,0.0349 0.90234,-1.56287 1.80468,-3.12573 2.70701,-4.68859 0.20461,-0.0489 0.4527,-0.26286 0.52791,-0.39311 0.0251,-0.0435 0.0503,-0.0869 0.0753,-0.1304 0.0804,-0.13927 0.12973,-0.4201 0.0755,-0.65196 -0.11026,0.19088 -0.22044,0.38176 -0.33066,0.57264 -0.16174,-0.2046 -0.37313,-0.372 -0.62577,-0.4796 0.17838,-0.30898 0.35676,-0.61797 0.53515,-0.92694 -0.0351,-0.0607 -0.11413,-0.19743 -0.15052,-0.26044 -0.21236,0.36783 -0.42472,0.73567 -0.63707,1.10351 -0.20953,-0.0473 -0.36919,-0.0489 -0.5736,-0.0489 0.30323,-0.52523 0.60647,-1.05045 0.90971,-1.57566 -0.0416,-0.0719 -0.1052,-0.18213 -0.15052,-0.26051 -0.35334,0.61203 -0.70667,1.22406 -1.06002,1.83609 -0.18412,-3e-5 -0.38625,-7e-5 -0.60171,-1.4e-4 0.45359,-0.78563 0.90718,-1.57127 1.36077,-2.3569 -0.0552,-0.0955 -0.0892,-0.15438 -0.15051,-0.26038 -0.5037,0.87241 -1.00739,1.74481 -1.51109,2.61722 -0.22649,-7e-5 -0.36208,-1.4e-4 -0.60159,-2.7e-4 0.60391,-1.04598 1.20781,-2.09197 1.81171,-3.13795 -0.12027,-0.19323 -0.15209,-0.29231 -0.31137,-0.50309 -0.70068,1.21363 -1.40136,2.42726 -2.10205,3.64091 -0.12013,-4e-5 -0.18277,-3e-5 -0.30082,-8e-5 0.741,-1.28348 1.482,-2.56695 2.22299,-3.85042 -0.12506,-0.12907 -0.26248,-0.24274 -0.40557,-0.33983 -0.80638,1.39671 -1.61276,2.79341 -2.41913,4.19013 -0.10934,-4e-5 -0.19827,-4e-5 -0.3009,-7e-5 0.83243,-1.44181 1.66486,-2.8836 2.49729,-4.32539 -0.15896,-0.0856 -0.32321,-0.15452 -0.48304,-0.20566 -0.87199,1.5103 -1.74398,3.0206 -2.61596,4.5309 -0.0847,-1e-5 -0.22739,-1e-4 -0.30076,-1.3e-4 0.88525,-1.53329 1.77049,-3.06659 2.65573,-4.59989 -0.30981,-0.0548 -0.58653,-0.074 -0.88249,-0.0349 z m -3.21485,5.047 c 0.95772,-1.65881 1.91545,-3.31761 2.87316,-4.97644 -0.61737,0.17293 -1.23587,0.59043 -1.5474,1.11682 -0.43175,0.74782 -0.86349,1.49564 -1.29523,2.24347 -0.27495,0.55639 -0.30503,1.097 -0.0305,1.61615 z m 7.56575,0.44579 c -0.95772,1.65884 -1.91545,3.31768 -2.87317,4.97653 0.61738,-0.17292 1.23595,-0.59043 1.54747,-1.11682 0.43175,-0.74781 0.86349,-1.49564 1.29524,-2.24346 0.27494,-0.55639 0.30494,-1.0971 0.0305,-1.61625 z"
           style="opacity:1;vector-effect:none;fill:#1a1a1a;fill-opacity:1;stroke:#36343c;stroke-width:0.02091493;stroke-linecap:round;stroke-linejoin:round;stroke-miterlimit:4;stroke-dasharray:none;stroke-dashoffset:0;stroke-opacity:1;paint-order:markers fill stroke" />
        <rect
           y="175.186"
           x="172.08748"
           height="0.52916664"
           width="2.6458333"
           id="rect5046"
           style="opacity:1;vector-effect:none;fill:#36343c;fill-opacity:1;stroke:none;stroke-width:0.02109293;stroke-linecap:round;stroke-linejoin:bevel;stroke-miterlimit:4;stroke-dasharray:none;stroke-dashoffset:0;stroke-opacity:1;paint-order:markers fill stroke" />
        <rect
           style="opacity:1;vector-effect:none;fill:#36343c;fill-opacity:1;stroke:none;stroke-width:0.03946126;stroke-linecap:round;stroke-linejoin:bevel;stroke-miterlimit:4;stroke-dasharray:none;stroke-dashoffset:0;stroke-opacity:1;paint-order:markers fill stroke"
           id="rect5048"
           width="18.520834"
           height="0.26458332"
           x="172.08748"
           y="177.03807" />
        <rect
           style="opacity:1;vector-effect:none;fill:#36343c;fill-opacity:1;stroke:none;stroke-width:0.02109293;stroke-linecap:round;stroke-linejoin:bevel;stroke-miterlimit:4;stroke-dasharray:none;stroke-dashoffset:0;stroke-opacity:1;paint-order:markers fill stroke"
           id="rect5050"
           width="2.6458333"
           height="0.52916664"
           x="187.96248"
           y="175.186" />
        <rect
           y="175.186"
           x="183.99373"
           height="0.52916664"
           width="2.6458333"
           id="rect5052"
           style="opacity:1;vector-effect:none;fill:#36343c;fill-opacity:1;stroke:none;stroke-width:0.02109293;stroke-linecap:round;stroke-linejoin:bevel;stroke-miterlimit:4;stroke-dasharray:none;stroke-dashoffset:0;stroke-opacity:1;paint-order:markers fill stroke" />
        <rect
           style="opacity:1;vector-effect:none;fill:#36343c;fill-opacity:1;stroke:none;stroke-width:0.02109293;stroke-linecap:round;stroke-linejoin:bevel;stroke-miterlimit:4;stroke-dasharray:none;stroke-dashoffset:0;stroke-opacity:1;paint-order:markers fill stroke"
           id="rect5054"
           width="2.6458333"
           height="0.52916664"
           x="180.02498"
           y="175.186" />
        <rect
           y="175.186"
           x="176.05623"
           height="0.52916664"
           width="2.6458333"
           id="rect5056"
           style="opacity:1;vector-effect:none;fill:#36343c;fill-opacity:1;stroke:none;stroke-width:0.02109293;stroke-linecap:round;stroke-linejoin:bevel;stroke-miterlimit:4;stroke-dasharray:none;stroke-dashoffset:0;stroke-opacity:1;paint-order:markers fill stroke" />
        <rect
           y="177.83182"
           x="172.08748"
           height="0.26458332"
           width="13.229167"
           id="rect5058"
           style="opacity:1;vector-effect:none;fill:#36343c;fill-opacity:1;stroke:none;stroke-width:0.03335085;stroke-linecap:round;stroke-linejoin:bevel;stroke-miterlimit:4;stroke-dasharray:none;stroke-dashoffset:0;stroke-opacity:1;paint-order:markers fill stroke" />
      </g>
    </g>
  </g>
</svg>
