<svg width="201" height="76" viewBox="0 0 201 76" fill="none" xmlns="http://www.w3.org/2000/svg">
<g id="webDesignIcon">
<g id="Code">
<path id="screen1" d="M99.3335 1.02295H0.853882V74.8826H99.3335V1.02295Z" fill="#36343C" stroke="#36343C" stroke-width="1.52052" stroke-linecap="round"/>
<path id="codeLine1" d="M30.3978 10.1319H10.7018V12.1015H30.3978V10.1319Z" fill="#C3E06D"/>
<path id="codeLine2" d="M69.7896 14.071H10.7018V16.0407H69.7896V14.071Z" fill="#C3E06D"/>
<path id="codeLine3" d="M59.9417 18.0103H10.7018V19.9798H59.9417V18.0103Z" fill="#C3E06D"/>
<path id="codeLine4" d="M30.3978 21.9495H10.7018V23.9191H30.3978V21.9495Z" fill="#C3E06D"/>
<path id="codeLine5" d="M89.4855 25.8887H10.7018V27.8582H89.4855V25.8887Z" fill="#C3E06D"/>
<path id="codeLine6" d="M40.2457 29.8278H10.7018V31.7974H40.2457V29.8278Z" fill="#C3E06D"/>
<path id="codeLine7" d="M50.0937 33.767H10.7018V35.7367H50.0937V33.767Z" fill="#C3E06D"/>
<path id="codeLine8" d="M79.6376 37.7062H10.7018V39.6757H79.6376V37.7062Z" fill="#C3E06D"/>
<path id="codeLine9" d="M30.3978 41.6454H10.7018V43.615H30.3978V41.6454Z" fill="#C3E06D"/>
<path id="codeLine10" d="M30.3978 45.5846H10.7018V47.5542H30.3978V45.5846Z" fill="#C3E06D"/>
<path id="codeLine11" d="M50.0937 49.5237H10.7018V51.4934H50.0937V49.5237Z" fill="#C3E06D"/>
<path id="CodeLine12" d="M40.2457 53.463H10.7018V55.4325H40.2457V53.463Z" fill="#C3E06D"/>
<path id="codeLine13" d="M20.5498 57.4021H10.7018V59.3717H20.5498V57.4021Z" fill="#C3E06D"/>
</g>
<g id="Website">
<path id="screen2" d="M199.333 1.02295H100.854V74.8826H199.333V1.02295Z" fill="#C3E06D" stroke="#36343C" stroke-width="1.52052" stroke-linecap="round"/>
<path id="logoWebsite" d="M147.985 11.4349C144.629 17.2484 141.272 23.0618 137.916 28.8753C137.171 29.1199 136.454 29.6249 136.005 30.2633C135.87 30.4554 135.771 30.6225 135.664 30.8349C135.302 31.5556 135.198 32.4069 135.384 33.2615C135.794 32.551 136.204 31.8406 136.614 31.1301C137.25 31.9047 138.04 32.5187 138.945 32.9114C138.281 34.0627 137.616 35.214 136.952 36.3653C137.082 36.5905 137.376 37.1002 137.512 37.3347C138.303 35.9639 139.094 34.5931 139.886 33.2223C140.628 33.4072 141.263 33.405 142.02 33.405C142.023 33.4013 142.024 33.3938 142.024 33.3938C142.024 33.3938 142.024 33.3938 142.024 33.3938C140.892 35.3543 139.761 37.3149 138.629 39.2754C138.783 39.543 139.02 39.9531 139.189 40.2449C140.505 37.9654 141.821 35.6859 143.137 33.4064C143.137 33.4064 143.137 33.4064 143.137 33.4064C143.903 33.4064 144.683 33.4075 145.376 33.4075C143.687 36.3331 141.998 39.2587 140.309 42.1844C140.514 42.5398 140.641 42.7589 140.869 43.1535C142.745 39.9048 144.62 36.6561 146.496 33.4075C147.285 33.4075 148.051 33.4084 148.736 33.4084C146.487 37.3033 144.238 41.1982 141.989 45.0932C142.437 45.8124 142.555 46.1812 143.148 46.9657C145.757 42.4467 148.366 37.9277 150.975 33.4086C151.348 33.4086 151.721 33.4086 152.095 33.4086C152.097 33.4049 152.098 33.3975 152.098 33.3975C152.098 33.3975 152.099 33.3975 152.099 33.3975C149.337 38.1807 146.576 42.9638 143.814 47.747C144.28 48.2274 144.791 48.6505 145.324 49.0118C148.326 43.8115 151.329 38.6112 154.331 33.4108C154.704 33.4108 155.077 33.4108 155.451 33.4108C152.352 38.7788 149.252 44.1469 146.153 49.5149C146.745 49.8335 147.356 50.09 147.951 50.2803C151.198 44.6573 154.444 39.0345 157.69 33.4117C158.005 33.4117 158.538 33.4117 158.81 33.4117C155.514 39.1203 152.218 44.8289 148.922 50.5375C150.034 50.7687 151.124 50.816 152.207 50.6675C155.566 44.8504 158.924 39.0333 162.283 33.2162C163.044 33.0342 163.968 32.2378 164.248 31.753C164.341 31.5911 164.435 31.4296 164.528 31.2677C164.827 30.7493 165.011 29.704 164.809 28.841C164.399 29.5515 163.988 30.262 163.578 30.9725C162.976 30.2109 162.189 29.5879 161.249 29.1874C161.913 28.0373 162.577 26.8872 163.241 25.7372C163.11 25.5113 162.816 25.0024 162.681 24.7679C161.89 26.137 161.1 27.506 160.309 28.8752C159.53 28.6991 158.935 28.6932 158.174 28.6932C159.303 26.7383 160.432 24.7833 161.56 22.8285C161.406 22.5608 161.169 22.1506 161 21.8588C159.685 24.1368 158.37 26.4148 157.055 28.6929C156.369 28.6927 155.617 28.6926 154.815 28.6923C156.503 25.7682 158.192 22.844 159.88 19.9199C159.675 19.5644 159.548 19.3452 159.32 18.9507C157.445 22.1978 155.57 25.445 153.695 28.6921C152.852 28.6919 152.348 28.6916 151.456 28.6912C153.704 24.798 155.952 20.9047 158.2 17.0115C157.752 16.2923 157.633 15.9235 157.041 15.1389C154.433 19.6561 151.825 24.1734 149.217 28.6906C148.77 28.6905 148.536 28.6905 148.097 28.6904C150.855 23.9132 153.613 19.136 156.371 14.3589C155.906 13.8785 155.394 13.4554 154.862 13.094C151.86 18.2926 148.859 23.4912 145.857 28.6899C145.45 28.6898 145.119 28.6897 144.737 28.6896C147.836 23.3231 150.934 17.9567 154.032 12.5903C153.441 12.2717 152.829 12.0152 152.235 11.8248C148.989 17.4463 145.743 23.0677 142.498 28.6891C142.183 28.6891 141.651 28.6887 141.378 28.6886C144.673 22.9816 147.968 17.2746 151.263 11.5675C150.11 11.3636 149.08 11.2921 147.978 11.4377L147.985 11.4349ZM136.02 30.2202C139.584 24.046 143.149 17.8718 146.714 11.6975C144.416 12.3412 142.114 13.8952 140.954 15.8544C139.347 18.6379 137.74 21.4213 136.133 24.2048C135.11 26.2757 134.998 28.2879 136.02 30.2202H136.02ZM164.18 31.8794C160.615 38.0537 157.05 44.228 153.486 50.4024C155.784 49.7588 158.086 48.2048 159.245 46.2455C160.852 43.4621 162.459 40.6787 164.066 37.8952C165.09 35.8243 165.201 33.8117 164.18 31.8794H164.18Z" fill="#1A1A1A" stroke="#36343C" stroke-width="0.0778467" stroke-linecap="round" stroke-linejoin="round"/>
<path id="menu1" d="M125.474 57.4021H115.626V59.3717H125.474V57.4021Z" fill="#36343C"/>
<path id="textLine1" d="M184.561 64.2957H115.626V65.2805H184.561V64.2957Z" fill="#36343C"/>
<path id="menu5" d="M184.561 57.4021H174.714V59.3717H184.561V57.4021Z" fill="#36343C"/>
<path id="menu4" d="M169.789 57.4021H159.942V59.3717H169.789V57.4021Z" fill="#36343C"/>
<path id="menu3" d="M155.018 57.4021H145.17V59.3717H155.018V57.4021Z" fill="#36343C"/>
<path id="menu2" d="M140.246 57.4021H130.398V59.3717H140.246V57.4021Z" fill="#36343C"/>
<path id="textLine2" d="M164.866 67.25H115.626V68.2348H164.866V67.25Z" fill="#36343C"/>
</g>
</g>
</svg>
